<?xml version="1.0" encoding="UTF-8" standalone="no"?>
<!-- Created with Inkscape (http://www.inkscape.org/) -->

<svg
   width="225mm"
   height="300mm"
   viewBox="0 0 225 300"
   version="1.1"
   id="svg1"
   xml:space="preserve"
   sodipodi:docname="roulet.svg"
   inkscape:version="1.4 (e7c3feb1, 2024-10-09)"
   xmlns:inkscape="http://www.inkscape.org/namespaces/inkscape"
   xmlns:sodipodi="http://sodipodi.sourceforge.net/DTD/sodipodi-0.dtd"
   xmlns="http://www.w3.org/2000/svg"
   xmlns:svg="http://www.w3.org/2000/svg"><sodipodi:namedview
     id="namedview1"
     pagecolor="#ffffff"
     bordercolor="#000000"
     borderopacity="0.25"
     inkscape:showpageshadow="2"
     inkscape:pageopacity="0.0"
     inkscape:pagecheckerboard="0"
     inkscape:deskcolor="#d1d1d1"
     inkscape:document-units="mm"
     inkscape:zoom="0.90148732"
     inkscape:cx="554.63897"
     inkscape:cy="236.2762"
     inkscape:window-width="1472"
     inkscape:window-height="923"
     inkscape:window-x="0"
     inkscape:window-y="33"
     inkscape:window-maximized="0"
     inkscape:current-layer="layer1" /><defs
     id="defs1" /><g
     id="layer1"><g
       id="g34"
       transform="matrix(0,0.26458333,0.26458333,0,-144.13671,116.49751)"
       style="display:inline;stroke:#ff0000;stroke-opacity:1"><path
         d="m 0.25,1122.5197 a 0.25,0.25 0 0 0 -0.5,0 0.25,0.25 0 0 0 0.5,0 z"
         style="fill:none;stroke:#ff0000;stroke-opacity:1"
         id="path5-4" /><path
         style="fill:none;stroke:#ff0000;stroke-dasharray:1.8898, 0.9449;stroke-opacity:1"
         d="m -42.5197,1122.52 v -68.03"
         id="path13-4" /><path
         style="fill:none;stroke:#ff0000;stroke-dasharray:1.8898, 0.9449;stroke-opacity:1"
         d="m 33.0709,1054.49 v 68.03"
         id="path15-0" /><path
         style="fill:none;stroke:#ff0000;stroke-dasharray:1.8898, 0.9449;stroke-opacity:1"
         d="M 33.0709,1054.49 311.206,776.353"
         id="path16-3" /><path
         style="fill:none;stroke:#ff0000;stroke-dasharray:1.8898, 0.9449;stroke-opacity:1"
         d="M -42.5197,1054.49 -320.655,776.353"
         id="path18-6" /><path
         d="m 311.20612,776.35293 a 468.66142,468.66142 0 0 0 -631.86106,0"
         style="fill:none;stroke:#ff0000;stroke-opacity:1"
         id="path19-9" /><path
         style="fill:none;stroke:#ff0000;stroke-opacity:1"
         d="M 33.0709,1054.49 311.206,776.353"
         id="path20-4" /><path
         style="fill:none;stroke:#ff0000;stroke-opacity:1"
         d="M -320.655,776.353 -42.5197,1054.49"
         id="path21-1" /><path
         style="fill:none;stroke:#ff0000;stroke-opacity:1"
         d="m 33.0709,1054.49 v 68.03"
         id="path22-3" /><path
         style="fill:none;stroke:#ff0000;stroke-opacity:1"
         d="M 33.0709,1122.52 H 0"
         id="path23-7" /><path
         style="fill:none;stroke:#ff0000;stroke-opacity:1"
         d="m 0,1089.4 v 1.29"
         id="path24-8" /><path
         style="fill:none;stroke:#ff0000;stroke-opacity:1"
         d="m 0,1088.5 v 34.02"
         id="path25-8" /><path
         style="fill:none;stroke:#ff0000;stroke-opacity:1"
         d="M 0,1088.5 H -9.44882"
         id="path26-3" /><path
         style="fill:none;stroke:#ff0000;stroke-opacity:1"
         d="M -9.44882,1122.52 V 1088.5"
         id="path27-8" /><path
         style="fill:none;stroke:#ff0000;stroke-opacity:1"
         d="M -9.44882,1122.52 H -42.5197"
         id="path28" /><path
         style="fill:none;stroke:#ff0000;stroke-opacity:1"
         d="m -42.5197,1054.49 v 68.03"
         id="path29" /><path
         style="fill:none;stroke:#ff0000;stroke-dasharray:1.8898, 0.9449;stroke-opacity:1"
         d="M -4.72441,986.457 202.242,779.49"
         id="path32" /><path
         style="fill:none;stroke:#ff0000;stroke-dasharray:1.8898, 0.9449;stroke-opacity:1"
         d="M -211.691,779.49 -4.72441,986.457"
         id="path33" /><path
         d="M -211.69088,779.49022 -4.724409,986.45669 202.24206,779.49022 a 400.62992,400.62992 0 0 0 -413.93294,0 z"
         style="fill:none;stroke:#ff0000;stroke-opacity:1"
         id="path34" /></g><g
       id="g10"
       transform="matrix(0.26458333,0,0,0.26458333,74.242291,-462.99146)"
       style="display:inline;stroke:#ff0000;stroke-opacity:1"><path
         d="m 56.692913,2180.7874 a 56.692913,56.692913 0 0 0 -113.385826,0 56.692913,56.692913 0 0 0 113.385826,0 z"
         style="fill:none;stroke:#ff0000;stroke-opacity:1"
         id="path5-5" /><path
         d="m 5.669291,2199.6851 a 5.669291,5.669291 0 0 0 -11.338582,0 5.669291,5.669291 0 0 0 11.338582,0 z"
         style="fill:none;stroke:#ff0000;stroke-opacity:1"
         id="path6-4" /><path
         d="m 5.669291,2161.8898 a 5.669291,5.669291 0 0 0 -11.338582,0 5.669291,5.669291 0 0 0 11.338582,0 z"
         style="fill:none;stroke:#ff0000;stroke-opacity:1"
         id="path7-9" /></g><g
       id="g7"
       transform="matrix(0.26458333,0,0,0.26458333,173.26729,-442.31072)"
       style="display:inline;stroke:#ff0000;stroke-opacity:1"><path
         d="m 188.97638,1878.4252 a 188.97638,188.97638 0 0 0 -377.95276,0 188.97638,188.97638 0 0 0 377.95276,0 z"
         style="fill:none;stroke:#ff0000;stroke-opacity:1"
         id="path5-6" /><path
         d="m 37.795276,1878.4252 a 37.795276,37.795276 0 0 0 -75.590552,0 37.795276,37.795276 0 0 0 75.590552,0 z"
         style="fill:none;stroke:#ff0000;stroke-opacity:1"
         id="path6-6" /></g><g
       id="g29"
       transform="matrix(0,-0.26458333,0.26458333,0,-166.60156,7.0714375)"
       style="display:inline;fill:none;fill-opacity:1;stroke:#ff0000;stroke-opacity:1"><path
         d="m 0.25,1122.5197 a 0.25,0.25 0 0 0 -0.5,0 0.25,0.25 0 0 0 0.5,0 z"
         style="fill:none;fill-opacity:1;stroke:#ff0000;stroke-opacity:1"
         id="path5-3" /><path
         d="m -67.781496,1122.5197 a 0.25,0.25 0 0 0 -0.5,0 0.25,0.25 0 0 0 0.5,0 z"
         style="fill:none;fill-opacity:1;stroke:#ff0000;stroke-opacity:1"
         id="path6-65" /><path
         d="m -468.41142,653.85827 a 0.25,0.25 0 0 0 -0.5,0 0.25,0.25 0 0 0 0.5,0 z"
         style="fill:none;fill-opacity:1;stroke:#ff0000;stroke-opacity:1"
         id="path7-5" /><path
         style="fill:none;fill-opacity:1;stroke:#ff0000;stroke-opacity:1"
         d="M 0,1122.52 H -30.2362"
         id="path8-8" /><path
         style="fill:none;fill-opacity:1;stroke:#ff0000;stroke-opacity:1"
         d="M 0,1122.52 V 750.069"
         id="path9-1" /><path
         style="fill:none;fill-opacity:1;stroke:#ff0000;stroke-opacity:1"
         d="M -96.2111,721.89 H -434.646"
         id="path10-4" /><path
         style="fill:none;fill-opacity:1;stroke:#ff0000;stroke-opacity:1"
         d="M -96.2111,653.858 H -434.646"
         id="path11-7" /><path
         style="fill:none;fill-opacity:1;stroke:#ff0000;stroke-opacity:1"
         d="m -68.0315,1077.17 h 34.0158"
         id="path12-1" /><path
         style="fill:none;fill-opacity:1;stroke:#ff0000;stroke-opacity:1"
         d="m -68.0315,1067.91 h 34.0158"
         id="path13-3" /><path
         style="fill:none;fill-opacity:1;stroke:#ff0000;stroke-opacity:1"
         d="m -34.0157,1067.91 v 9.26"
         id="path14-8" /><path
         style="fill:none;fill-opacity:1;stroke:#ff0000;stroke-opacity:1"
         d="m -68.0315,1084.72 v -7.55"
         id="path15-4" /><path
         style="fill:none;fill-opacity:1;stroke:#ff0000;stroke-opacity:1"
         d="M -68.0315,1067.91 V 750.069"
         id="path16" /><path
         d="m -76.285101,730.14337 a 28.179568,28.179568 0 0 0 -19.925963,-8.25361"
         style="fill:none;fill-opacity:1;stroke:#ff0000;stroke-dasharray:1.8898, 0.9449;stroke-opacity:1"
         id="path19-0" /><path
         d="M -68.031496,750.06933 A 28.179568,28.179568 0 0 0 -96.211064,721.88976"
         style="fill:none;fill-opacity:1;stroke:#ff0000;stroke-opacity:1"
         id="path20-46" /><path
         d="M 0,750.06933 A 96.211064,96.211064 0 0 0 -96.211064,653.85827"
         style="fill:none;fill-opacity:1;stroke:#ff0000;stroke-opacity:1"
         id="path21" /><path
         d="m -468.66142,687.87402 a 34.015748,34.015748 0 0 0 34.01575,34.01574"
         style="fill:none;fill-opacity:1;stroke:#ff0000;stroke-opacity:1"
         id="path24-3" /><path
         d="m -434.64567,653.85827 a 34.015748,34.015748 0 0 0 -34.01575,34.01575"
         style="fill:none;fill-opacity:1;stroke:#ff0000;stroke-opacity:1"
         id="path25-2" /><path
         d="m -428.97638,687.87402 a 5.6692915,5.6692915 0 0 0 -11.33858,0 5.6692915,5.6692915 0 0 0 11.33858,0 z"
         style="fill:none;fill-opacity:1;stroke:#ff0000;stroke-opacity:1"
         id="path26" /><path
         d="m -68.031496,1084.7244 a 37.795276,37.795276 0 0 0 37.795276,37.7953"
         style="fill:none;fill-opacity:1;stroke:#ff0000;stroke-opacity:1"
         id="path29-9" /></g><path
       style="fill:none;fill-opacity:1;stroke:#000000;stroke-width:0.500019;stroke-opacity:1"
       d="m 173.184,4.5590162 0.168,20.8309948"
       id="path10" /></g></svg>
